<svg xmlns="http://www.w3.org/2000/svg" width="134" height="30" fill="none"><path fill="#9EE8EB" fill-rule="evenodd" d="M6.99 4.59c.367.083.747.123 1.14.12a7.438 7.438 0 0 1 2.88.75 18.585 18.585 0 0 1 3.24 2.79c.02 5.25 0 10.49-.06 15.72a23.553 23.553 0 0 0-3.66-2.67c-1.06-.43-2.16-.7-3.3-.81a1.886 1.886 0 0 0-.84-.12 11.26 11.26 0 0 1-1.44-.12c-.01-5.24 0-10.48.03-15.72a7.42 7.42 0 0 1 2.01.06ZM15.75 23.91c-.06-5.21-.08-10.43-.06-15.66a20.205 20.205 0 0 1 2.94-2.61 6.053 6.053 0 0 1 2.76-.87 7.922 7.922 0 0 0 1.44-.18 15.954 15.954 0 0 1 2.1-.12v15.78a58.54 58.54 0 0 0-3.6.45c-.53.102-1.05.242-1.56.42-.69.355-1.35.755-1.98 1.2a64.105 64.105 0 0 1-2.04 1.59Z" clip-rule="evenodd"/><path fill="#DDF6F8" fill-rule="evenodd" d="M6.99 4.59c.393-.003.773.037 1.14.12a5.007 5.007 0 0 1-1.14-.12Z" clip-rule="evenodd" opacity=".682"/><path fill="#D3F4F5" fill-rule="evenodd" d="M22.83 4.59a7.922 7.922 0 0 1-1.44.18 7.92 7.92 0 0 1 1.44-.18Z" clip-rule="evenodd" opacity=".867"/><path fill="#61E1E6" fill-rule="evenodd" d="M4.05 5.67a.576.576 0 0 0 .36.06c-.02 5.05 0 10.09.06 15.12a19.05 19.05 0 0 1 2.64.24c.203.095.423.135.66.12a8.215 8.215 0 0 1 1.86.45 18.395 18.395 0 0 1 3.51 2.13c.14.331.25.671.33 1.02a.801.801 0 0 1 0 .36c-1.44-.76-2.9-1.49-4.38-2.19a21.333 21.333 0 0 0-2.28-.69 1.169 1.169 0 0 0-.66-.18 208.909 208.909 0 0 1-3.06-.66c-.06-5.28-.08-10.56-.06-15.84.346-.017.686.003 1.02.06ZM25.95 5.67h.9c.04 5.273 0 10.533-.12 15.78a74.776 74.776 0 0 0-5.58 1.41 65.442 65.442 0 0 0-4.74 2.37l-.06-.12c.136-.418.266-.838.39-1.26 1.29-1.05 2.72-1.86 4.29-2.43.357-.09.717-.16 1.08-.21.259.025.499-.015.72-.12h.12c.353.003.693-.037 1.02-.12a7.79 7.79 0 0 1 1.5-.12c.06-5.03.08-10.07.06-15.12a.771.771 0 0 0 .42-.06Z" clip-rule="evenodd"/><path fill="#7AE6EA" fill-rule="evenodd" d="M25.95 5.67c.308-.06.628-.08.96-.06v15.84h-.18c.12-5.247.16-10.507.12-15.78h-.9Z" clip-rule="evenodd"/><path fill="#85E8EC" fill-rule="evenodd" d="M4.05 5.67h.42v15.18c-.06-5.03-.08-10.07-.06-15.12a.576.576 0 0 1-.36-.06Z" clip-rule="evenodd"/><path fill="#7AE6EB" fill-rule="evenodd" d="M25.95 5.67a.771.771 0 0 1-.42.06c.02 5.05 0 10.09-.06 15.12V5.67h.48Z" clip-rule="evenodd"/><path fill="#C8EBFF" fill-rule="evenodd" d="M2.07 6.99h-.78v15.72c-.06-5.25-.08-10.51-.06-15.78.292-.02.572 0 .84.06Z" clip-rule="evenodd" opacity=".974"/><path fill="#42B8FF" fill-rule="evenodd" d="M2.07 6.99h.24v15.06c.76.054 1.52.114 2.28.18a11.46 11.46 0 0 1 3 .63c.785.308 1.565.628 2.34.96.361.16.701.35 1.02.57.02.093.08.133.18.12.342.262.622.582.84.96-.02.05-.06.07-.12.06a.416.416 0 0 1-.24-.06c-.068-.103-.168-.143-.3-.12a11.878 11.878 0 0 1-.9-.3.601.601 0 0 0-.48-.18 7.596 7.596 0 0 1-.72-.24c-.068-.103-.168-.143-.3-.12a332.699 332.699 0 0 0-3.36-1.17 41.773 41.773 0 0 0-4.26-.63V6.99h.78Z" clip-rule="evenodd"/><path fill="#4CBAFF" fill-rule="evenodd" d="M26.91 22.89c-.66.023-1.3.123-1.92.3-.42.1-.84.21-1.26.33a100.38 100.38 0 0 1-5.52 1.95c-.1.013-.16-.027-.18-.12.27-.48.65-.85 1.14-1.11a26.512 26.512 0 0 1 3.48-1.47c.16.005.3-.035.42-.12.176-.004.336-.044.48-.12a17.17 17.17 0 0 1 3.54-.48h.54V6.99c.353-.07.703-.07 1.05 0 .04 5.24.04 10.48 0 15.72-.582.108-1.172.168-1.77.18Z" clip-rule="evenodd"/><path fill="#D4EFFF" fill-rule="evenodd" d="M2.31 6.99c.047 5.14.087 10.14.12 15 .734.034 1.454.114 2.16.24-.76-.066-1.52-.126-2.28-.18V6.99Z" clip-rule="evenodd"/><path fill="#CBEBFF" fill-rule="evenodd" d="M27.63 6.99v15.06h-.54a.771.771 0 0 1 .42-.06c.033-4.86.073-9.86.12-15Z" clip-rule="evenodd"/><path fill="#BAEFF1" fill-rule="evenodd" d="M14.25 8.25c.08 5.25.08 10.51 0 15.78-.036-.007-.056-.027-.06-.06.06-5.23.08-10.47.06-15.72Z" clip-rule="evenodd" opacity=".976"/><path fill="#B4EDF0" fill-rule="evenodd" d="M15.69 8.25c-.02 5.23 0 10.45.06 15.66a.259.259 0 0 1-.09.12c-.05-5.27-.04-10.53.03-15.78Z" clip-rule="evenodd" opacity=".976"/><path fill="#DCF6F7" fill-rule="evenodd" d="M6.39 20.37c.297-.023.577.017.84.12a5.313 5.313 0 0 1-.84-.12Z" clip-rule="evenodd" opacity=".835"/><path fill="#AFF0F2" fill-rule="evenodd" d="M23.97 20.97a3.987 3.987 0 0 1-1.02.12 3.988 3.988 0 0 1 1.02-.12Z" clip-rule="evenodd"/><path fill="#DAF8F9" fill-rule="evenodd" d="M7.11 21.09c.233.009.453.049.66.12a1.334 1.334 0 0 1-.66-.12Z" clip-rule="evenodd" opacity=".643"/><path fill="#B7F1F3" fill-rule="evenodd" d="M22.83 21.09a1.346 1.346 0 0 1-.72.12c.228-.067.468-.107.72-.12Z" clip-rule="evenodd"/><path fill="#D1F6F7" fill-rule="evenodd" d="M6.15 22.11c.244-.004.464.056.66.18a2.664 2.664 0 0 1-.66-.18Z" clip-rule="evenodd"/><path fill="#AEDFFF" fill-rule="evenodd" d="M23.55 22.53a1.065 1.065 0 0 1-.48.12c.14-.092.3-.132.48-.12Z" clip-rule="evenodd"/><path fill="#A9DCFF" fill-rule="evenodd" d="M23.07 22.65a.668.668 0 0 1-.42.12.668.668 0 0 1 .42-.12Z" clip-rule="evenodd"/><path fill="#D8F0FF" fill-rule="evenodd" d="M26.91 22.89c-.63.11-1.27.21-1.92.3a7.954 7.954 0 0 1 1.92-.3Z" clip-rule="evenodd" opacity=".643"/><path fill="#ADDBFF" fill-rule="evenodd" d="M10.95 24.39a.424.424 0 0 1 .18.12c-.1.013-.16-.027-.18-.12Z" clip-rule="evenodd"/><path fill="#B4E0FF" fill-rule="evenodd" d="M8.91 24.51c.132-.023.232.017.3.12a.682.682 0 0 1-.3-.12Z" clip-rule="evenodd"/><path fill="#AADBFF" fill-rule="evenodd" d="M9.93 24.87c.193-.01.353.05.48.18a1.712 1.712 0 0 1-.48-.18Z" clip-rule="evenodd"/><path fill="#CCF5F6" fill-rule="evenodd" d="M13.47 24.81a.376.376 0 0 1 .06.42c-.036-.007-.056-.027-.06-.06a.801.801 0 0 0 0-.36Z" clip-rule="evenodd"/><path fill="#AADCFF" fill-rule="evenodd" d="M11.31 25.35c.132-.023.232.017.3.12a.682.682 0 0 1-.3-.12Z" clip-rule="evenodd"/><path fill="#B0E0FF" fill-rule="evenodd" d="M11.97 25.47a.259.259 0 0 1 .12.09c-.094.046-.174.036-.24-.03.06.01.1-.01.12-.06Z" clip-rule="evenodd"/><path fill="#ADDEFF" fill-rule="evenodd" d="M18.03 25.35c.02.093.08.133.18.12-.34.19-.4.15-.18-.12Z" clip-rule="evenodd" opacity=".835"/><path fill="#000" d="M40.88 22.288c-.88 0-1.648-.128-2.304-.384-.656-.272-1.208-.624-1.656-1.056a3.973 3.973 0 0 1-.936-1.416l1.68-.696c.272.544.68.984 1.224 1.32a3.358 3.358 0 0 0 1.8.504c.752 0 1.384-.144 1.896-.432.512-.304.768-.728.768-1.272 0-.496-.192-.896-.576-1.2-.368-.304-.92-.552-1.656-.744l-1.152-.312c-1.088-.288-1.936-.72-2.544-1.296-.608-.592-.912-1.256-.912-1.992 0-1.136.368-2.016 1.104-2.64.752-.64 1.864-.96 3.336-.96a5.62 5.62 0 0 1 1.92.312 4.335 4.335 0 0 1 1.488.888c.416.368.72.808.912 1.32l-1.68.744c-.208-.544-.552-.936-1.032-1.176-.48-.24-1.064-.36-1.752-.36-.736 0-1.312.16-1.728.48-.416.304-.624.736-.624 1.296 0 .32.168.624.504.912.352.272.864.496 1.536.672l1.2.312c.784.192 1.44.48 1.968.864.528.368.928.792 1.2 1.272.272.48.408.992.408 1.536 0 .72-.192 1.344-.576 1.872-.384.528-.904.936-1.56 1.224-.656.272-1.408.408-2.256.408Zm11.492 0c-1.168 0-2.072-.304-2.712-.912-.64-.608-.96-1.464-.96-2.568V6.256h1.92v12.36c0 .608.16 1.08.48 1.416.336.32.8.48 1.392.48.192 0 .376-.024.552-.072.192-.064.44-.208.744-.432l.744 1.56c-.416.272-.792.456-1.128.552-.336.112-.68.168-1.032.168Zm-5.76-10.584V10h7.608v1.704h-7.608Zm15.552 10.584c-1.168 0-2.208-.264-3.12-.792a5.787 5.787 0 0 1-2.112-2.232c-.512-.944-.768-2.032-.768-3.264 0-1.232.248-2.32.744-3.264a5.613 5.613 0 0 1 2.112-2.208c.912-.544 1.944-.816 3.096-.816 1.184 0 2.224.272 3.12.816a5.401 5.401 0 0 1 2.112 2.208c.512.944.768 2.032.768 3.264 0 1.232-.256 2.32-.768 3.264a5.614 5.614 0 0 1-2.088 2.232c-.896.528-1.928.792-3.096.792Zm0-1.776c.8 0 1.496-.192 2.088-.576a3.947 3.947 0 0 0 1.392-1.584c.352-.672.528-1.456.528-2.352 0-.896-.176-1.68-.528-2.352a3.886 3.886 0 0 0-1.416-1.584c-.608-.384-1.312-.576-2.112-.576-.784 0-1.48.192-2.088.576a4.125 4.125 0 0 0-1.416 1.584c-.336.672-.504 1.456-.504 2.352 0 .88.168 1.664.504 2.352.352.672.832 1.2 1.44 1.584.624.384 1.328.576 2.112.576Zm9.674-5.016c0-1.296.248-2.344.744-3.144.496-.816 1.128-1.416 1.896-1.8.784-.4 1.608-.6 2.472-.6v1.8c-.704 0-1.384.12-2.04.36a3.41 3.41 0 0 0-1.584 1.128c-.416.528-.624 1.248-.624 2.16l-.864.096ZM70.782 22V10h1.92v12h-1.92Zm9.189 5.088c-.304 0-.656-.064-1.056-.192-.4-.112-.824-.264-1.272-.456l.72-1.608c.368.16.688.28.96.36.288.08.512.12.672.12.432 0 .784-.12 1.056-.36.288-.224.528-.552.72-.984l1.368-3.264L87.579 10h2.064l-5.76 13.68a12.012 12.012 0 0 1-.96 1.824c-.32.512-.712.904-1.176 1.176-.464.272-1.056.408-1.776.408ZM82.61 22l-5.184-12h2.04l4.464 10.68.576 1.32H82.61Zm8.625 0V5.2h3.168V22h-3.168Zm7.968 0v-6.144h3.168V22h-3.168Zm0-6.144c0-.816-.096-1.448-.288-1.896-.192-.448-.456-.768-.792-.96a2.188 2.188 0 0 0-1.176-.312c-.816-.016-1.448.232-1.896.744-.432.512-.648 1.272-.648 2.28h-1.056c0-1.28.184-2.36.552-3.24.384-.896.912-1.576 1.584-2.04.688-.48 1.488-.72 2.4-.72.96 0 1.768.192 2.424.576.672.384 1.184.984 1.536 1.8.352.8.528 1.84.528 3.12v.648h-3.168ZM112.819 22l-.192-2.208V10h3.168v12h-2.976Zm-8.136-5.856V10h3.168v6.144h-3.168Zm3.168 0c0 .8.088 1.432.264 1.896.192.448.456.776.792.984.352.192.744.288 1.176.288.832.016 1.464-.232 1.896-.744.432-.528.648-1.288.648-2.28h1.08c0 1.28-.192 2.368-.576 3.264-.384.88-.912 1.56-1.584 2.04-.672.464-1.464.696-2.376.696-.96 0-1.776-.192-2.448-.576-.672-.384-1.184-.976-1.536-1.776-.336-.816-.504-1.864-.504-3.144v-.648h3.168ZM118.54 22V5.2h3.168v14.568L121.54 22h-3Zm6.792.288c-1.008 0-1.864-.256-2.568-.768-.688-.512-1.216-1.24-1.584-2.184-.368-.944-.552-2.056-.552-3.336 0-1.296.184-2.408.552-3.336.368-.944.896-1.672 1.584-2.184.704-.512 1.56-.768 2.568-.768 1.104 0 2.056.256 2.856.768.816.512 1.448 1.24 1.896 2.184.448.928.672 2.04.672 3.336 0 1.28-.224 2.392-.672 3.336-.448.944-1.08 1.672-1.896 2.184-.8.512-1.752.768-2.856.768Zm-.816-2.904c.576 0 1.08-.144 1.512-.432a2.97 2.97 0 0 0 1.056-1.2c.256-.512.384-1.096.384-1.752 0-.656-.128-1.24-.384-1.752a2.651 2.651 0 0 0-1.032-1.176c-.432-.288-.936-.432-1.512-.432a2.58 2.58 0 0 0-1.464.432 2.866 2.866 0 0 0-1.008 1.2c-.24.496-.36 1.072-.36 1.728 0 .656.12 1.24.36 1.752s.568.912.984 1.2c.432.288.92.432 1.464.432Z"/></svg>